<svg width="680" height="400" viewBox="0 0 680 400" xmlns="http://www.w3.org/2000/svg">
  <g transform="translate(340,200)">

    <!-- Outer ripple ring 3 (faintest) -->
    <ellipse cx="0" cy="0" rx="120" ry="115" fill="none" stroke="#fff" stroke-width="1.2" opacity="0.12"/>

    <!-- Outer ripple ring 2 -->
    <ellipse cx="0" cy="0" rx="95" ry="90" fill="none" stroke="#fff" stroke-width="1.8" opacity="0.18"/>

    <!-- Outer ripple ring 1 -->
    <ellipse cx="0" cy="0" rx="72" ry="68" fill="none" stroke="#fff" stroke-width="2.5" opacity="0.28"/>

    <!-- Splash crown - irregular white ring of spray -->
    <path d="M0,-52 L8,-48 L14,-56 L18,-44 L26,-52 L28,-40 L38,-46 L36,-34 L48,-36 L42,-26 L54,-24 L46,-18 L56,-10 L46,-8 L52,2 L42,0 L48,12 L38,8 L40,22 L30,14 L28,26 L20,18 L14,28 L10,18 L0,26 L-4,18 L-14,28 L-18,18 L-26,26 L-26,14 L-38,22 L-34,8 L-46,12 L-40,0 L-50,2 L-44,-8 L-54,-10 L-44,-18 L-52,-24 L-40,-26 L-46,-36 L-34,-34 L-36,-46 L-26,-40 L-24,-52 L-16,-44 L-12,-56 L-6,-48Z" fill="#fff" opacity="0.7"/>

    <!-- Inner splash - brighter, tighter -->
    <path d="M0,-36 L6,-30 L12,-38 L14,-28 L22,-32 L20,-22 L30,-22 L26,-14 L34,-8 L26,-6 L32,2 L24,2 L28,12 L20,8 L18,18 L12,12 L6,20 L2,12 L-6,20 L-8,12 L-16,18 L-16,8 L-26,12 L-22,2 L-30,2 L-24,-6 L-32,-8 L-24,-14 L-28,-22 L-18,-22 L-20,-32 L-12,-28 L-10,-38 L-4,-30Z" fill="#fff" opacity="0.85"/>

    <!-- Foam/turbulence center -->
    <circle cx="0" cy="0" r="18" fill="#fff" opacity="0.5"/>
    <circle cx="0" cy="0" r="12" fill="#fff" opacity="0.35"/>

    <!-- Scattered spray droplets - outer ring -->
    <circle cx="-80" cy="-40" r="2" fill="#fff" opacity="0.3"/>
    <circle cx="-65" cy="55" r="2.5" fill="#fff" opacity="0.25"/>
    <circle cx="72" cy="-50" r="1.8" fill="#fff" opacity="0.28"/>
    <circle cx="85" cy="20" r="2.2" fill="#fff" opacity="0.22"/>
    <circle cx="-45" cy="-72" r="1.5" fill="#fff" opacity="0.25"/>
    <circle cx="50" cy="68" r="2" fill="#fff" opacity="0.2"/>
    <circle cx="-90" cy="5" r="1.8" fill="#fff" opacity="0.18"/>
    <circle cx="38" cy="-78" r="1.5" fill="#fff" opacity="0.22"/>
    <circle cx="-58" cy="72" r="1.5" fill="#fff" opacity="0.18"/>
    <circle cx="90" cy="-15" r="1.8" fill="#fff" opacity="0.2"/>

    <!-- Scattered spray droplets - mid ring -->
    <circle cx="-52" cy="-35" r="2.5" fill="#fff" opacity="0.4"/>
    <circle cx="48" cy="-38" r="2" fill="#fff" opacity="0.38"/>
    <circle cx="-40" cy="42" r="2.2" fill="#fff" opacity="0.35"/>
    <circle cx="55" cy="30" r="2.5" fill="#fff" opacity="0.32"/>
    <circle cx="10" cy="-55" r="2" fill="#fff" opacity="0.35"/>
    <circle cx="-30" cy="52" r="1.8" fill="#fff" opacity="0.3"/>
    <circle cx="62" cy="-10" r="2" fill="#fff" opacity="0.3"/>
    <circle cx="-60" cy="-10" r="2.2" fill="#fff" opacity="0.32"/>
    <circle cx="20" cy="55" r="1.8" fill="#fff" opacity="0.28"/>
    <circle cx="-15" cy="-58" r="2" fill="#fff" opacity="0.3"/>

    <!-- Tail fins + nozzle poking up from center -->
    <!-- Left fin -->
    <path d="M-4,2 L-14,10 L-12,12 L-4,6Z" fill="#6E7266"/>
    <!-- Right fin -->
    <path d="M4,2 L14,10 L12,12 L4,6Z" fill="#6E7266"/>
    <!-- Top fin (edge-on) -->
    <line x1="0" y1="-4" x2="0" y2="8" stroke="#6E7266" stroke-width="1.5"/>
    <!-- Nozzle rings -->
    <ellipse cx="0" cy="2" rx="5" ry="4" fill="#5A5E52"/>
    <ellipse cx="0" cy="2" rx="3.5" ry="2.5" fill="#3A3E34"/>
    <ellipse cx="0" cy="2" rx="1.8" ry="1.2" fill="#2A2E24"/>

  </g>
</svg>